<?xml version="1.0" standalone="no"?>
<!DOCTYPE svg PUBLIC "-//W3C//DTD SVG 20010904//EN"
 "http://www.w3.org/TR/2001/REC-SVG-20010904/DTD/svg10.dtd">
<svg version="1.0" xmlns="http://www.w3.org/2000/svg"
 width="128.000000pt" height="128.000000pt" viewBox="0 0 128.000000 128.000000"
 preserveAspectRatio="xMidYMid meet">
<metadata>
Created by potrace 1.11, written by Peter Selinger 2001-2013
</metadata>
<g transform="translate(0.000000,128.000000) scale(0.100000,-0.100000)"
fill="#000000" stroke="none">
<path d="M793 1181 c-57 -41 -87 -108 -86 -188 2 -65 20 -139 48 -192 47 -92
159 -81 219 21 34 60 49 122 48 197 -4 156 -122 240 -229 162z"/>
<path d="M368 1177 c-93 -56 -121 -198 -64 -323 35 -77 77 -114 128 -114 32 0
46 6 69 31 39 42 51 87 55 204 3 88 1 105 -19 139 -43 76 -108 100 -169 63z"/>
<path d="M124 767 c-51 -28 -101 -109 -111 -182 -9 -66 13 -131 62 -182 36
-38 47 -43 85 -43 37 0 48 5 81 40 42 44 58 85 66 176 4 50 2 68 -17 105 -22
42 -64 87 -85 91 -36 5 -65 4 -81 -5z"/>
<path d="M1124 770 c-32 -13 -110 -106 -140 -166 -62 -127 -20 -244 87 -244
43 0 82 23 122 72 74 94 97 209 57 288 -29 56 -70 73 -126 50z"/>
<path d="M584 556 c-17 -7 -62 -49 -100 -91 -88 -100 -88 -100 -162 -164 -89
-78 -105 -151 -47 -220 46 -54 111 -60 250 -22 89 25 150 26 265 6 147 -26
215 -19 261 27 23 23 29 38 29 72 0 57 -18 78 -103 120 -83 40 -106 61 -179
165 -29 41 -65 83 -79 93 -34 25 -96 32 -135 14z"/>
</g>
</svg>
